# MagicaVoxel @ Ephtracy

# group
o 

# material
mtllib chest-0.mtl
usemtl palette

# normals
vn -1 0 0
vn 1 0 0
vn 0 0 1
vn 0 0 -1
vn 0 -1 0
vn 0 1 0

# texcoords
vt 0.0917969 0.5
vt 0.974609 0.5
vt 0.982422 0.5

# verts
v -2 0.1 -1.2
v -2 0.1 -2
v -2 0.2 -1.2
v -2 0.2 -2
v -2 0.4 -1.2
v -2 0.4 -2
v -1.8 0 -1.2
v -1.8 0 -1.3
v -1.8 0.1 -1.2
v -1.8 0.1 -1.3
v -1.4 0 -1.2
v -1.4 0 -1.3
v -1.4 0.1 -1.2
v -1.4 0.1 -1.3
v -1.2 0.1 -1.2
v -1.2 0.1 -2
v -1.2 0.2 -1.2
v -1.2 0.2 -2
v -1.2 0.4 -1.2
v -1.2 0.4 -2
v -2 0.1 -1.2
v -2 0.2 -1.2
v -2 0.4 -1.2
v -1.8 0 -1.2
v -1.8 0.1 -1.2
v -1.8 0.2 -1.2
v -1.4 0 -1.2
v -1.4 0.1 -1.2
v -1.4 0.2 -1.2
v -1.2 0.1 -1.2
v -1.2 0.2 -1.2
v -1.2 0.4 -1.2
v -1.8 0 -1.3
v -1.8 0.1 -1.3
v -1.4 0 -1.3
v -1.4 0.1 -1.3
v -2 0.1 -2
v -2 0.2 -2
v -2 0.4 -2
v -1.2 0.1 -2
v -1.2 0.2 -2
v -1.2 0.4 -2
v -1.8 0 -1.2
v -1.4 0 -1.2
v -1.8 0 -1.3
v -1.4 0 -1.3
v -2 0.1 -1.2
v -1.8 0.1 -1.2
v -1.4 0.1 -1.2
v -1.2 0.1 -1.2
v -1.8 0.1 -1.3
v -1.4 0.1 -1.3
v -1.8 0.1 -1.9
v -1.4 0.1 -1.9
v -2 0.1 -2
v -1.2 0.1 -2
v -2 0.4 -1.2
v -1.2 0.4 -1.2
v -2 0.4 -2
v -1.2 0.4 -2

# faces
f 3/2/1 2/2/1 1/2/1
f 4/2/1 2/2/1 3/2/1
f 5/1/1 4/1/1 3/1/1
f 6/1/1 4/1/1 5/1/1
f 9/3/1 8/3/1 7/3/1
f 10/3/1 8/3/1 9/3/1
f 11/3/2 12/3/2 13/3/2
f 13/3/2 12/3/2 14/3/2
f 15/2/2 16/2/2 17/2/2
f 17/2/2 16/2/2 18/2/2
f 17/1/2 18/1/2 19/1/2
f 19/1/2 18/1/2 20/1/2
f 25/2/3 22/2/3 21/2/3
f 26/1/3 23/1/3 22/1/3
f 26/2/3 22/2/3 25/2/3
f 27/3/3 25/3/3 24/3/3
f 27/3/3 26/3/3 25/3/3
f 28/3/3 26/3/3 27/3/3
f 29/1/3 23/1/3 26/1/3
f 29/3/3 26/3/3 28/3/3
f 30/2/3 29/2/3 28/2/3
f 31/1/3 23/1/3 29/1/3
f 31/2/3 29/2/3 30/2/3
f 32/1/3 23/1/3 31/1/3
f 33/3/4 34/3/4 35/3/4
f 35/3/4 34/3/4 36/3/4
f 37/2/4 38/2/4 40/2/4
f 38/1/4 39/1/4 41/1/4
f 40/2/4 38/2/4 41/2/4
f 41/1/4 39/1/4 42/1/4
f 45/3/5 44/3/5 43/3/5
f 46/3/5 44/3/5 45/3/5
f 51/2/5 48/2/5 47/2/5
f 52/2/5 50/2/5 49/2/5
f 53/2/5 51/2/5 47/2/5
f 53/1/5 52/1/5 51/1/5
f 54/2/5 50/2/5 52/2/5
f 54/1/5 52/1/5 53/1/5
f 55/2/5 53/2/5 47/2/5
f 55/2/5 54/2/5 53/2/5
f 56/2/5 50/2/5 54/2/5
f 56/2/5 54/2/5 55/2/5
f 57/1/6 58/1/6 59/1/6
f 59/1/6 58/1/6 60/1/6
