# MagicaVoxel @ Ephtracy

# group
o 

# material
mtllib Table.mtl
usemtl palette

# normals
vn -1 0 0
vn 1 0 0
vn 0 0 1
vn 0 0 -1
vn 0 -1 0
vn 0 1 0

# texcoords
vt 0.302734 0.5
vt 0.310547 0.5

# verts
v -0.5 0.4 0.5
v -0.5 0.4 -0.5
v -0.5 0.6 0.5
v -0.5 0.6 -0.5
v -0.4 0 0.4
v -0.4 0 0.3
v -0.4 0 0.2
v -0.4 0 -0.2
v -0.4 0 -0.4
v -0.4 0.1 0.3
v -0.4 0.1 0.2
v -0.4 0.1 -0.3
v -0.4 0.1 -0.4
v -0.4 0.2 0.4
v -0.4 0.2 0.3
v -0.4 0.2 -0.3
v -0.4 0.2 -0.4
v -0.4 0.3 0.3
v -0.4 0.3 0.2
v -0.4 0.4 0.4
v -0.4 0.4 0.2
v -0.4 0.4 -0.2
v -0.4 0.4 -0.4
v 0.2 0 0.4
v 0.2 0 0.2
v 0.2 0 -0.2
v 0.2 0 -0.3
v 0.2 0 -0.4
v 0.2 0.1 -0.2
v 0.2 0.1 -0.3
v 0.2 0.1 -0.4
v 0.2 0.2 -0.2
v 0.2 0.2 -0.3
v 0.2 0.4 0.4
v 0.2 0.4 0.2
v 0.2 0.4 -0.2
v 0.2 0.4 -0.4
v -0.2 0 0.4
v -0.2 0 0.3
v -0.2 0 0.2
v -0.2 0 -0.2
v -0.2 0 -0.4
v -0.2 0.1 0.3
v -0.2 0.1 0.2
v -0.2 0.1 -0.3
v -0.2 0.1 -0.4
v -0.2 0.3 -0.3
v -0.2 0.3 -0.4
v -0.2 0.4 0.4
v -0.2 0.4 0.2
v -0.2 0.4 -0.2
v -0.2 0.4 -0.4
v 0.4 0 0.4
v 0.4 0 0.3
v 0.4 0 0.2
v 0.4 0 -0.2
v 0.4 0 -0.3
v 0.4 0 -0.4
v 0.4 0.1 0.4
v 0.4 0.1 0.3
v 0.4 0.1 0.2
v 0.4 0.1 -0.2
v 0.4 0.1 -0.3
v 0.4 0.2 -0.3
v 0.4 0.2 -0.4
v 0.4 0.3 0.4
v 0.4 0.3 0.3
v 0.4 0.3 -0.2
v 0.4 0.3 -0.3
v 0.4 0.4 0.4
v 0.4 0.4 0.2
v 0.4 0.4 -0.2
v 0.4 0.4 -0.4
v 0.5 0.4 0.5
v 0.5 0.4 -0.5
v 0.5 0.6 0.5
v 0.5 0.6 -0.5
v -0.5 0.4 0.5
v -0.5 0.6 0.5
v 0.5 0.4 0.5
v 0.5 0.6 0.5
v -0.4 0 0.4
v -0.4 0.2 0.4
v -0.4 0.4 0.4
v -0.3 0 0.4
v -0.3 0.2 0.4
v -0.2 0 0.4
v -0.2 0.4 0.4
v 0.2 0 0.4
v 0.2 0.4 0.4
v 0.3 0.1 0.4
v 0.3 0.3 0.4
v 0.4 0 0.4
v 0.4 0.1 0.4
v 0.4 0.3 0.4
v 0.4 0.4 0.4
v -0.4 0 -0.2
v -0.4 0.4 -0.2
v -0.2 0 -0.2
v -0.2 0.4 -0.2
v 0.2 0 -0.2
v 0.2 0.1 -0.2
v 0.2 0.2 -0.2
v 0.2 0.4 -0.2
v 0.3 0.2 -0.2
v 0.3 0.3 -0.2
v 0.4 0 -0.2
v 0.4 0.1 -0.2
v 0.4 0.3 -0.2
v 0.4 0.4 -0.2
v -0.4 0 0.2
v -0.4 0.1 0.2
v -0.4 0.3 0.2
v -0.4 0.4 0.2
v -0.3 0 0.2
v -0.3 0.1 0.2
v -0.3 0.3 0.2
v -0.2 0 0.2
v -0.2 0.1 0.2
v -0.2 0.4 0.2
v 0.2 0 0.2
v 0.2 0.4 0.2
v 0.3 0 0.2
v 0.3 0.1 0.2
v 0.4 0 0.2
v 0.4 0.1 0.2
v 0.4 0.4 0.2
v -0.4 0 -0.4
v -0.4 0.1 -0.4
v -0.4 0.2 -0.4
v -0.4 0.4 -0.4
v -0.3 0.2 -0.4
v -0.3 0.3 -0.4
v -0.2 0 -0.4
v -0.2 0.1 -0.4
v -0.2 0.3 -0.4
v -0.2 0.4 -0.4
v 0.2 0 -0.4
v 0.2 0.1 -0.4
v 0.2 0.4 -0.4
v 0.3 0.1 -0.4
v 0.3 0.2 -0.4
v 0.4 0 -0.4
v 0.4 0.2 -0.4
v 0.4 0.4 -0.4
v -0.5 0.4 -0.5
v -0.5 0.6 -0.5
v 0.5 0.4 -0.5
v 0.5 0.6 -0.5
v -0.4 0 0.4
v -0.3 0 0.4
v -0.2 0 0.4
v 0.2 0 0.4
v 0.4 0 0.4
v -0.4 0 0.3
v -0.3 0 0.3
v -0.2 0 0.3
v 0.3 0 0.3
v 0.4 0 0.3
v -0.4 0 0.2
v -0.3 0 0.2
v -0.2 0 0.2
v 0.2 0 0.2
v 0.3 0 0.2
v 0.4 0 0.2
v -0.4 0 -0.2
v -0.2 0 -0.2
v 0.2 0 -0.2
v 0.4 0 -0.2
v 0.2 0 -0.3
v 0.4 0 -0.3
v -0.4 0 -0.4
v -0.2 0 -0.4
v 0.2 0 -0.4
v 0.4 0 -0.4
v -0.5 0.4 0.5
v 0.5 0.4 0.5
v -0.4 0.4 0.4
v -0.2 0.4 0.4
v 0.2 0.4 0.4
v 0.4 0.4 0.4
v -0.4 0.4 0.2
v -0.2 0.4 0.2
v 0.2 0.4 0.2
v 0.4 0.4 0.2
v -0.4 0.4 -0.2
v -0.2 0.4 -0.2
v 0.2 0.4 -0.2
v 0.4 0.4 -0.2
v -0.4 0.4 -0.4
v -0.2 0.4 -0.4
v 0.2 0.4 -0.4
v 0.4 0.4 -0.4
v -0.5 0.4 -0.5
v 0.5 0.4 -0.5
v -0.5 0.6 0.5
v 0.5 0.6 0.5
v 0.3 0.6 0.4
v 0.4 0.6 0.4
v -0.3 0.6 0.3
v -0.1 0.6 0.3
v 0.2 0.6 0.3
v 0.3 0.6 0.3
v 0.4 0.6 0.3
v -0.3 0.6 0.2
v -0.1 0.6 0.2
v 0 0.6 0.2
v -0.3 0.6 0.1
v -0.1 0.6 0.1
v 0 0.6 0.1
v 0.1 0.6 0.1
v -0.3 0.6 0
v 0 0.6 0
v 0.2 0.6 0
v 0.3 0.6 0
v -0.3 0.6 -0.1
v -0.2 0.6 -0.1
v 0 0.6 -0.1
v 0.1 0.6 -0.1
v 0.2 0.6 -0.1
v 0.4 0.6 -0.1
v -0.4 0.6 -0.2
v -0.3 0.6 -0.2
v -0.1 0.6 -0.2
v 0.1 0.6 -0.2
v 0.2 0.6 -0.2
v 0.4 0.6 -0.2
v -0.4 0.6 -0.3
v -0.3 0.6 -0.3
v -0.1 0.6 -0.3
v 0 0.6 -0.3
v 0.1 0.6 -0.3
v 0.3 0.6 -0.3
v -0.3 0.6 -0.4
v -0.2 0.6 -0.4
v 0 0.6 -0.4
v 0.3 0.6 -0.4
v -0.5 0.6 -0.5
v 0.5 0.6 -0.5

# faces
f 3/1/1 2/1/1 1/1/1
f 4/1/1 2/1/1 3/1/1
f 10/2/1 6/2/1 5/2/1
f 10/1/1 7/1/1 6/1/1
f 11/1/1 7/1/1 10/1/1
f 12/1/1 9/1/1 8/1/1
f 13/1/1 9/1/1 12/1/1
f 14/2/1 11/2/1 10/2/1
f 14/2/1 10/2/1 5/2/1
f 15/2/1 11/2/1 14/2/1
f 16/2/1 13/2/1 12/2/1
f 16/1/1 12/1/1 8/1/1
f 17/2/1 13/2/1 16/2/1
f 18/2/1 11/2/1 15/2/1
f 18/1/1 15/1/1 14/1/1
f 19/2/1 11/2/1 18/2/1
f 20/1/1 18/1/1 14/1/1
f 20/1/1 19/1/1 18/1/1
f 21/1/1 19/1/1 20/1/1
f 22/1/1 17/1/1 16/1/1
f 22/1/1 16/1/1 8/1/1
f 23/1/1 17/1/1 22/1/1
f 29/1/1 27/1/1 26/1/1
f 30/2/1 28/2/1 27/2/1
f 30/1/1 27/1/1 29/1/1
f 31/2/1 28/2/1 30/2/1
f 32/2/1 30/2/1 29/2/1
f 33/1/1 31/1/1 30/1/1
f 33/2/1 30/2/1 32/2/1
f 34/1/1 25/1/1 24/1/1
f 35/1/1 25/1/1 34/1/1
f 36/1/1 33/1/1 32/1/1
f 37/1/1 31/1/1 33/1/1
f 37/1/1 33/1/1 36/1/1
f 38/1/2 39/1/2 43/1/2
f 39/2/2 40/2/2 43/2/2
f 43/2/2 40/2/2 44/2/2
f 41/1/2 42/1/2 45/1/2
f 45/1/2 42/1/2 46/1/2
f 41/1/2 45/1/2 47/1/2
f 45/2/2 46/2/2 47/2/2
f 47/2/2 46/2/2 48/2/2
f 43/1/2 44/1/2 49/1/2
f 38/1/2 43/1/2 49/1/2
f 49/1/2 44/1/2 50/1/2
f 47/1/2 48/1/2 51/1/2
f 41/1/2 47/1/2 51/1/2
f 51/1/2 48/1/2 52/1/2
f 53/1/2 54/1/2 59/1/2
f 54/2/2 55/2/2 60/2/2
f 59/1/2 54/1/2 60/1/2
f 60/2/2 55/2/2 61/2/2
f 56/1/2 57/1/2 62/1/2
f 57/2/2 58/2/2 63/2/2
f 62/1/2 57/1/2 63/1/2
f 62/2/2 63/2/2 64/2/2
f 63/2/2 58/2/2 64/2/2
f 64/2/2 58/2/2 65/2/2
f 59/2/2 60/2/2 66/2/2
f 60/1/2 61/1/2 67/1/2
f 66/2/2 60/2/2 67/2/2
f 62/2/2 64/2/2 68/2/2
f 64/1/2 65/1/2 69/1/2
f 68/2/2 64/2/2 69/2/2
f 66/1/2 67/1/2 70/1/2
f 67/1/2 61/1/2 71/1/2
f 70/1/2 67/1/2 71/1/2
f 68/1/2 69/1/2 72/1/2
f 69/1/2 65/1/2 73/1/2
f 72/1/2 69/1/2 73/1/2
f 74/1/2 75/1/2 76/1/2
f 76/1/2 75/1/2 77/1/2
f 80/1/3 79/1/3 78/1/3
f 81/1/3 79/1/3 80/1/3
f 85/2/3 83/2/3 82/2/3
f 86/1/3 84/1/3 83/1/3
f 86/2/3 83/2/3 85/2/3
f 87/1/3 86/1/3 85/1/3
f 88/1/3 84/1/3 86/1/3
f 88/1/3 86/1/3 87/1/3
f 91/1/3 90/1/3 89/1/3
f 92/1/3 90/1/3 91/1/3
f 93/1/3 91/1/3 89/1/3
f 94/2/3 92/2/3 91/2/3
f 94/1/3 91/1/3 93/1/3
f 95/1/3 90/1/3 92/1/3
f 95/2/3 92/2/3 94/2/3
f 96/1/3 90/1/3 95/1/3
f 99/1/3 98/1/3 97/1/3
f 100/1/3 98/1/3 99/1/3
f 105/2/3 103/2/3 102/2/3
f 105/1/3 104/1/3 103/1/3
f 106/1/3 104/1/3 105/1/3
f 107/1/3 102/1/3 101/1/3
f 108/2/3 105/2/3 102/2/3
f 108/1/3 102/1/3 107/1/3
f 108/2/3 106/2/3 105/2/3
f 109/1/3 104/1/3 106/1/3
f 109/2/3 106/2/3 108/2/3
f 110/1/3 104/1/3 109/1/3
f 111/1/4 112/1/4 115/1/4
f 112/2/4 113/2/4 116/2/4
f 115/1/4 112/1/4 116/1/4
f 113/1/4 114/1/4 117/1/4
f 116/2/4 113/2/4 117/2/4
f 115/2/4 116/2/4 118/2/4
f 116/1/4 117/1/4 119/1/4
f 118/2/4 116/2/4 119/2/4
f 117/1/4 114/1/4 120/1/4
f 119/1/4 117/1/4 120/1/4
f 121/1/4 122/1/4 123/1/4
f 123/1/4 122/1/4 124/1/4
f 123/2/4 124/2/4 125/2/4
f 124/1/4 122/1/4 126/1/4
f 125/2/4 124/2/4 126/2/4
f 126/1/4 122/1/4 127/1/4
f 129/2/4 130/2/4 132/2/4
f 130/1/4 131/1/4 132/1/4
f 132/1/4 131/1/4 133/1/4
f 128/1/4 129/1/4 134/1/4
f 129/2/4 132/2/4 135/2/4
f 134/1/4 129/1/4 135/1/4
f 132/2/4 133/2/4 135/2/4
f 133/1/4 131/1/4 136/1/4
f 135/2/4 133/2/4 136/2/4
f 136/1/4 131/1/4 137/1/4
f 138/2/4 139/2/4 141/2/4
f 139/1/4 140/1/4 141/1/4
f 141/1/4 140/1/4 142/1/4
f 138/2/4 141/2/4 143/2/4
f 141/2/4 142/2/4 143/2/4
f 142/1/4 140/1/4 144/1/4
f 143/2/4 142/2/4 144/2/4
f 144/1/4 140/1/4 145/1/4
f 146/1/4 147/1/4 148/1/4
f 148/1/4 147/1/4 149/1/4
f 155/2/5 151/2/5 150/2/5
f 156/1/5 152/1/5 151/1/5
f 156/2/5 151/2/5 155/2/5
f 157/1/5 152/1/5 156/1/5
f 158/1/5 154/1/5 153/1/5
f 159/1/5 154/1/5 158/1/5
f 160/1/5 156/1/5 155/1/5
f 161/2/5 157/2/5 156/2/5
f 161/1/5 156/1/5 160/1/5
f 162/2/5 157/2/5 161/2/5
f 163/1/5 158/1/5 153/1/5
f 164/2/5 159/2/5 158/2/5
f 164/1/5 158/1/5 163/1/5
f 165/2/5 159/2/5 164/2/5
f 170/1/5 169/1/5 168/1/5
f 171/1/5 169/1/5 170/1/5
f 172/1/5 167/1/5 166/1/5
f 173/1/5 167/1/5 172/1/5
f 174/2/5 171/2/5 170/2/5
f 175/2/5 171/2/5 174/2/5
f 178/1/5 177/1/5 176/1/5
f 179/1/5 177/1/5 178/1/5
f 180/1/5 177/1/5 179/1/5
f 181/1/5 177/1/5 180/1/5
f 182/1/5 178/1/5 176/1/5
f 183/1/5 180/1/5 179/1/5
f 184/1/5 180/1/5 183/1/5
f 185/1/5 177/1/5 181/1/5
f 186/1/5 184/1/5 183/1/5
f 186/1/5 185/1/5 184/1/5
f 186/1/5 182/1/5 176/1/5
f 186/1/5 183/1/5 182/1/5
f 187/1/5 185/1/5 186/1/5
f 188/1/5 185/1/5 187/1/5
f 189/1/5 177/1/5 185/1/5
f 189/1/5 185/1/5 188/1/5
f 190/1/5 186/1/5 176/1/5
f 191/1/5 188/1/5 187/1/5
f 192/1/5 188/1/5 191/1/5
f 193/1/5 177/1/5 189/1/5
f 194/1/5 190/1/5 176/1/5
f 194/1/5 193/1/5 192/1/5
f 194/1/5 192/1/5 191/1/5
f 194/1/5 191/1/5 190/1/5
f 195/1/5 177/1/5 193/1/5
f 195/1/5 193/1/5 194/1/5
f 196/1/6 197/1/6 198/1/6
f 198/1/6 197/1/6 199/1/6
f 196/1/6 198/1/6 200/1/6
f 200/1/6 198/1/6 201/1/6
f 201/1/6 198/1/6 202/1/6
f 198/2/6 199/2/6 203/2/6
f 202/1/6 198/1/6 203/1/6
f 199/1/6 197/1/6 204/1/6
f 203/2/6 199/2/6 204/2/6
f 196/1/6 200/1/6 205/1/6
f 200/2/6 201/2/6 205/2/6
f 201/1/6 202/1/6 206/1/6
f 205/2/6 201/2/6 206/2/6
f 206/1/6 202/1/6 207/1/6
f 196/1/6 205/1/6 208/1/6
f 205/1/6 206/1/6 208/1/6
f 206/2/6 207/2/6 209/2/6
f 208/1/6 206/1/6 209/1/6
f 207/1/6 202/1/6 210/1/6
f 209/2/6 207/2/6 210/2/6
f 210/1/6 202/1/6 211/1/6
f 208/2/6 209/2/6 212/2/6
f 196/1/6 208/1/6 212/1/6
f 210/2/6 211/2/6 212/2/6
f 209/2/6 210/2/6 212/2/6
f 212/2/6 211/2/6 213/2/6
f 202/2/6 203/2/6 214/2/6
f 211/1/6 202/1/6 214/1/6
f 203/1/6 204/1/6 215/1/6
f 214/2/6 203/2/6 215/2/6
f 212/1/6 213/1/6 216/1/6
f 196/1/6 212/1/6 216/1/6
f 216/1/6 213/1/6 217/1/6
f 213/2/6 211/2/6 218/2/6
f 217/1/6 213/1/6 218/1/6
f 211/1/6 214/1/6 219/1/6
f 218/2/6 211/2/6 219/2/6
f 214/1/6 215/1/6 219/1/6
f 219/1/6 215/1/6 220/1/6
f 215/1/6 204/1/6 221/1/6
f 220/1/6 215/1/6 221/1/6
f 204/1/6 197/1/6 221/1/6
f 196/1/6 216/1/6 222/1/6
f 216/2/6 217/2/6 223/2/6
f 222/1/6 216/1/6 223/1/6
f 219/1/6 220/1/6 224/1/6
f 218/1/6 219/1/6 224/1/6
f 217/1/6 218/1/6 224/1/6
f 224/1/6 220/1/6 225/1/6
f 220/2/6 221/2/6 226/2/6
f 225/1/6 220/1/6 226/1/6
f 221/1/6 197/1/6 227/1/6
f 226/2/6 221/2/6 227/2/6
f 196/1/6 222/1/6 228/1/6
f 222/2/6 223/2/6 228/2/6
f 223/2/6 217/2/6 229/2/6
f 228/2/6 223/2/6 229/2/6
f 224/2/6 225/2/6 230/2/6
f 217/1/6 224/1/6 230/1/6
f 230/2/6 225/2/6 231/2/6
f 226/1/6 227/1/6 232/1/6
f 231/2/6 225/2/6 232/2/6
f 225/1/6 226/1/6 232/1/6
f 232/1/6 227/1/6 233/1/6
f 229/2/6 217/2/6 234/2/6
f 228/1/6 229/1/6 234/1/6
f 230/1/6 231/1/6 235/1/6
f 234/2/6 217/2/6 235/2/6
f 217/1/6 230/1/6 235/1/6
f 231/2/6 232/2/6 236/2/6
f 235/1/6 231/1/6 236/1/6
f 232/2/6 233/2/6 236/2/6
f 233/1/6 227/1/6 237/1/6
f 236/2/6 233/2/6 237/2/6
f 196/1/6 228/1/6 238/1/6
f 228/1/6 234/1/6 238/1/6
f 236/1/6 237/1/6 238/1/6
f 234/1/6 235/1/6 238/1/6
f 235/1/6 236/1/6 238/1/6
f 227/1/6 197/1/6 239/1/6
f 238/1/6 237/1/6 239/1/6
f 237/1/6 227/1/6 239/1/6
