# MagicaVoxel @ Ephtracy

# group
o 

# material
mtllib MAN-2.mtl
usemtl palette

# normals
vn -1 0 0
vn 1 0 0
vn 0 0 1
vn 0 0 -1
vn 0 -1 0
vn 0 1 0

# texcoords
vt 0.0292969 0.5
vt 0.833984 0.5

# verts
v -0.8 0 0.4
v -0.8 0 -0.2
v -0.8 0.1 -0.1
v -0.8 0.1 -0.2
v -0.8 0.2 0.4
v -0.8 0.2 0
v -0.8 0.2 -0.1
v -0.8 0.8 0.4
v -0.8 0.8 0
v -0.4 0 0.4
v -0.4 0 -0.2
v -0.4 0.1 -0.1
v -0.4 0.1 -0.2
v -0.4 0.2 0.4
v -0.4 0.2 0
v -0.4 0.2 -0.1
v -0.4 0.8 0.4
v -0.4 0.8 0
v -0.8 0 0.4
v -0.8 0.2 0.4
v -0.8 0.8 0.4
v -0.4 0 0.4
v -0.4 0.2 0.4
v -0.4 0.8 0.4
v -0.8 0.2 0
v -0.8 0.8 0
v -0.4 0.2 0
v -0.4 0.8 0
v -0.8 0.1 -0.1
v -0.8 0.2 -0.1
v -0.4 0.1 -0.1
v -0.4 0.2 -0.1
v -0.8 0 -0.2
v -0.8 0.1 -0.2
v -0.4 0 -0.2
v -0.4 0.1 -0.2
v -0.8 0 0.4
v -0.4 0 0.4
v -0.8 0 -0.2
v -0.4 0 -0.2
v -0.8 0.1 -0.1
v -0.4 0.1 -0.1
v -0.8 0.1 -0.2
v -0.4 0.1 -0.2
v -0.8 0.2 0
v -0.4 0.2 0
v -0.8 0.2 -0.1
v -0.4 0.2 -0.1
v -0.8 0.8 0.4
v -0.4 0.8 0.4
v -0.8 0.8 0
v -0.4 0.8 0

# faces
f 3/1/1 2/1/1 1/1/1
f 4/1/1 2/1/1 3/1/1
f 5/1/1 3/1/1 1/1/1
f 6/1/1 3/1/1 5/1/1
f 7/1/1 3/1/1 6/1/1
f 8/2/1 6/2/1 5/2/1
f 9/2/1 6/2/1 8/2/1
f 10/1/2 11/1/2 12/1/2
f 12/1/2 11/1/2 13/1/2
f 10/1/2 12/1/2 14/1/2
f 14/1/2 12/1/2 15/1/2
f 15/1/2 12/1/2 16/1/2
f 14/2/2 15/2/2 17/2/2
f 17/2/2 15/2/2 18/2/2
f 22/1/3 20/1/3 19/1/3
f 23/2/3 21/2/3 20/2/3
f 23/1/3 20/1/3 22/1/3
f 24/2/3 21/2/3 23/2/3
f 25/2/4 26/2/4 27/2/4
f 27/2/4 26/2/4 28/2/4
f 29/1/4 30/1/4 31/1/4
f 31/1/4 30/1/4 32/1/4
f 33/1/4 34/1/4 35/1/4
f 35/1/4 34/1/4 36/1/4
f 39/1/5 38/1/5 37/1/5
f 40/1/5 38/1/5 39/1/5
f 41/1/6 42/1/6 43/1/6
f 43/1/6 42/1/6 44/1/6
f 45/1/6 46/1/6 47/1/6
f 47/1/6 46/1/6 48/1/6
f 49/2/6 50/2/6 51/2/6
f 51/2/6 50/2/6 52/2/6
